<?xml version="1.0" encoding="utf-8"?>
<!-- Generator: Adobe Illustrator 16.0.0, SVG Export Plug-In . SVG Version: 6.00 Build 0)  -->
<!DOCTYPE svg PUBLIC "-//W3C//DTD SVG 1.1//EN" "http://www.w3.org/Graphics/SVG/1.1/DTD/svg11.dtd">
<svg version="1.1" id="Layer_1" xmlns="http://www.w3.org/2000/svg" xmlns:xlink="http://www.w3.org/1999/xlink" x="0px" y="0px"
	 width="50px" height="50px" viewBox="0 0 50 50" enable-background="new 0 0 50 50" xml:space="preserve">
<g>
	<defs>
		<filter id="Adobe_OpacityMaskFilter" filterUnits="userSpaceOnUse" x="9.94" y="15.8" width="20.352" height="19.2">
			<feColorMatrix  type="matrix" values="1 0 0 0 0  0 1 0 0 0  0 0 1 0 0  0 0 0 1 0"/>
		</filter>
	</defs>
	<mask maskUnits="userSpaceOnUse" x="9.94" y="15.8" width="20.352" height="19.2" id="mask0_1715_415">
		<rect x="4.852" y="11" fill="#D9D9D9" filter="url(#Adobe_OpacityMaskFilter)" width="30.528" height="28.8"/>
	</mask>
	<g mask="url(#mask0_1715_415)">
		<path d="M14.392,24.2c-1.23,0-2.279-0.41-3.148-1.23S9.94,21.16,9.94,20c0-1.16,0.435-2.15,1.304-2.97
			c0.869-0.82,1.918-1.23,3.148-1.23c1.229,0,2.279,0.41,3.148,1.23c0.869,0.82,1.304,1.81,1.304,2.97c0,1.16-0.435,2.15-1.304,2.97
			S15.622,24.2,14.392,24.2z M14.392,21.8c0.53,0,0.98-0.175,1.351-0.525C16.114,20.925,16.3,20.5,16.3,20s-0.186-0.925-0.557-1.275
			c-0.371-0.35-0.821-0.525-1.351-0.525c-0.53,0-0.98,0.175-1.352,0.525S12.484,19.5,12.484,20s0.186,0.925,0.557,1.275
			C13.412,21.625,13.862,21.8,14.392,21.8z M25.84,35c-1.229,0-2.279-0.41-3.148-1.23c-0.869-0.819-1.304-1.81-1.304-2.969
			c0-1.16,0.435-2.15,1.304-2.971s1.919-1.23,3.148-1.23s2.279,0.41,3.148,1.23s1.304,1.811,1.304,2.971
			c0,1.159-0.435,2.149-1.304,2.969C28.119,34.59,27.069,35,25.84,35z M25.84,32.6c0.53,0,0.98-0.174,1.352-0.524
			s0.557-0.774,0.557-1.274s-0.186-0.926-0.557-1.275S26.37,29,25.84,29c-0.529,0-0.98,0.176-1.352,0.525s-0.557,0.775-0.557,1.275
			s0.186,0.924,0.557,1.274S25.311,32.6,25.84,32.6z M10.83,34.16c-0.233-0.22-0.35-0.5-0.35-0.84s0.117-0.62,0.35-0.84
			l16.791-15.84c0.232-0.22,0.529-0.33,0.891-0.33c0.359,0,0.656,0.11,0.89,0.33c0.233,0.22,0.351,0.5,0.351,0.84
			c0,0.34-0.117,0.62-0.351,0.84l-16.79,15.84c-0.233,0.221-0.53,0.33-0.891,0.33S11.063,34.381,10.83,34.16z"/>
	</g>
	<circle fill="none" stroke="#000000" stroke-width="3" cx="20.5" cy="25" r="16.5"/>
	<line fill="none" stroke="#000000" stroke-width="3" x1="37.744" y1="26.1" x2="4.856" y2="26.1"/>
</g>
</svg>
