<?xml version="1.0" encoding="utf-8"?>
<!-- Generator: Adobe Illustrator 16.0.0, SVG Export Plug-In . SVG Version: 6.00 Build 0)  -->
<!DOCTYPE svg PUBLIC "-//W3C//DTD SVG 1.1//EN" "http://www.w3.org/Graphics/SVG/1.1/DTD/svg11.dtd">
<svg version="1.1" id="Layer_1" xmlns="http://www.w3.org/2000/svg" xmlns:xlink="http://www.w3.org/1999/xlink" x="0px" y="0px"
	 width="53px" height="50px" viewBox="0 0 53 50" enable-background="new 0 0 53 50" xml:space="preserve">
<defs>
	<filter id="Adobe_OpacityMaskFilter" filterUnits="userSpaceOnUse" x="0" y="5.208" width="41.957" height="39.583">
		<feColorMatrix  type="matrix" values="1 0 0 0 0  0 1 0 0 0  0 0 1 0 0  0 0 0 1 0"/>
	</filter>
</defs>
<mask maskUnits="userSpaceOnUse" x="0" y="5.208" width="41.957" height="39.583" id="mask0_1715_427">
	<rect x="-5.521" fill="#D9D9D9" filter="url(#Adobe_OpacityMaskFilter)" width="53" height="50"/>
</mask>
<g mask="url(#mask0_1715_427)">
	<path d="M15.204,28.646c0-4.622,1.713-8.544,5.139-11.77s7.587-4.837,12.486-4.837v3.125c-3.982,0-7.362,1.309-10.142,3.924
		c-2.78,2.616-4.17,5.802-4.17,9.558H15.204z M22.932,28.646c0-2.589,0.964-4.792,2.891-6.609c1.925-1.817,4.261-2.726,7.005-2.726
		v3.125c-1.826,0-3.381,0.604-4.662,1.813c-1.281,1.209-1.921,2.674-1.921,4.398H22.932z M6.073,12.5
		c-1.073,0-1.985-0.354-2.737-1.063c-0.752-0.709-1.127-1.57-1.127-2.583s0.375-1.873,1.127-2.582C4.087,5.563,5,5.208,6.073,5.208
		c1.073,0,1.985,0.354,2.737,1.063c0.751,0.709,1.127,1.57,1.127,2.582s-0.376,1.873-1.127,2.583
		C8.058,12.146,7.146,12.5,6.073,12.5z M0,22.917v-4.688c0-0.721,0.269-1.335,0.807-1.843c0.538-0.507,1.189-0.761,1.953-0.761
		h6.625c1.713,0,3.199-0.491,4.459-1.474c1.26-0.983,2.086-2.228,2.48-3.734h3.333c-0.277,1.896-1.104,3.563-2.482,5
		s-3.054,2.421-5.03,2.953v4.547H0z M35.885,34.375c-1.072,0-1.984-0.354-2.736-1.064c-0.752-0.709-1.127-1.569-1.127-2.582
		c0-1.012,0.375-1.872,1.127-2.582c0.752-0.709,1.664-1.063,2.736-1.063c1.074,0,1.986,0.354,2.738,1.063
		c0.75,0.71,1.127,1.57,1.127,2.582c0,1.013-0.377,1.873-1.127,2.582C37.871,34.021,36.959,34.375,35.885,34.375z M29.813,44.791
		v-4.547c-1.947-0.531-3.607-1.509-4.977-2.933c-1.37-1.423-2.208-3.097-2.515-5.021h3.313c0.394,1.507,1.221,2.752,2.48,3.734
		c1.26,0.982,2.746,1.475,4.459,1.475h6.625c0.766,0,1.416,0.254,1.953,0.762c0.539,0.507,0.807,1.121,0.807,1.842v4.688H29.813z"/>
</g>
</svg>
