<?xml version="1.0" encoding="utf-8"?>
<!-- Generator: Adobe Illustrator 16.0.0, SVG Export Plug-In . SVG Version: 6.00 Build 0)  -->
<!DOCTYPE svg PUBLIC "-//W3C//DTD SVG 1.1//EN" "http://www.w3.org/Graphics/SVG/1.1/DTD/svg11.dtd">
<svg version="1.1" id="Layer_1" xmlns="http://www.w3.org/2000/svg" xmlns:xlink="http://www.w3.org/1999/xlink" x="0px" y="0px"
	 width="53px" height="50px" viewBox="0 0 53 50" enable-background="new 0 0 53 50" xml:space="preserve">
<defs>
	<filter id="Adobe_OpacityMaskFilter" filterUnits="userSpaceOnUse" x="0" y="4.688" width="34.229" height="40.023">
		<feColorMatrix  type="matrix" values="1 0 0 0 0  0 1 0 0 0  0 0 1 0 0  0 0 0 1 0"/>
	</filter>
</defs>
<mask maskUnits="userSpaceOnUse" x="0" y="4.688" width="34.229" height="40.023" id="mask0_1715_375">
	<rect x="-9.385" fill="#D9D9D9" filter="url(#Adobe_OpacityMaskFilter)" width="53" height="50"/>
</mask>
<g mask="url(#mask0_1715_375)">
	<path d="M14.796,26.246c0.266,0,0.514-0.04,0.743-0.121c0.229-0.08,0.447-0.217,0.654-0.412l7.605-7.175
		c0.32-0.302,0.48-0.668,0.48-1.098c0-0.43-0.16-0.807-0.48-1.13c-0.342-0.302-0.741-0.453-1.197-0.453
		c-0.455,0-0.844,0.151-1.163,0.453l-6.642,6.266l-1.928-1.819c-0.32-0.302-0.708-0.453-1.164-0.453
		c-0.456,0-0.844,0.151-1.164,0.453c-0.343,0.323-0.514,0.7-0.514,1.13c0,0.43,0.171,0.796,0.514,1.098l2.858,2.728
		c0.207,0.195,0.425,0.332,0.654,0.412C14.282,26.206,14.53,26.246,14.796,26.246z M17.115,41.254
		c4.547-3.836,7.984-7.495,10.311-10.979c2.328-3.484,3.49-6.492,3.49-9.024c0-3.945-1.332-7.171-3.996-9.678
		c-2.664-2.506-5.933-3.76-9.806-3.76c-3.874,0-7.142,1.253-9.806,3.76c-2.664,2.507-3.996,5.732-3.996,9.678
		c0,2.532,1.164,5.54,3.491,9.024S12.568,37.418,17.115,41.254z M17.115,44.711c-0.267,0-0.525-0.041-0.777-0.125
		c-0.252-0.085-0.481-0.207-0.688-0.367c-5.26-4.466-9.184-8.61-11.77-12.434C1.293,27.961,0,24.45,0,21.25
		c0-5.048,1.723-9.07,5.168-12.067c3.445-2.997,7.428-4.495,11.946-4.495s8.5,1.499,11.946,4.495
		c3.445,2.997,5.168,7.02,5.168,12.067c0,3.2-1.293,6.711-3.879,10.535c-2.586,3.823-6.51,7.968-11.77,12.434
		c-0.192,0.16-0.418,0.282-0.678,0.367C17.643,44.67,17.381,44.711,17.115,44.711z"/>
</g>
</svg>
