<?xml version="1.0" encoding="utf-8"?>
<!-- Generator: Adobe Illustrator 16.0.0, SVG Export Plug-In . SVG Version: 6.00 Build 0)  -->
<!DOCTYPE svg PUBLIC "-//W3C//DTD SVG 1.1//EN" "http://www.w3.org/Graphics/SVG/1.1/DTD/svg11.dtd">
<svg version="1.1" id="Layer_1" xmlns="http://www.w3.org/2000/svg" xmlns:xlink="http://www.w3.org/1999/xlink" x="0px" y="0px"
	 width="53px" height="50px" viewBox="0 0 53 50" enable-background="new 0 0 53 50" xml:space="preserve">
<defs>
	<filter id="Adobe_OpacityMaskFilter" filterUnits="userSpaceOnUse" x="0" y="9.776" width="41.402" height="31.218">
		<feColorMatrix  type="matrix" values="1 0 0 0 0  0 1 0 0 0  0 0 1 0 0  0 0 0 1 0"/>
	</filter>
</defs>
<mask maskUnits="userSpaceOnUse" x="0" y="9.776" width="41.402" height="31.218" id="mask0_1715_357">
	<rect x="-5.457" fill="#D9D9D9" filter="url(#Adobe_OpacityMaskFilter)" width="53" height="50"/>
</mask>
<g mask="url(#mask0_1715_357)">
	<path d="M1.996,40.225c-0.565,0-1.04-0.181-1.422-0.541C0.191,39.322,0,38.875,0,38.342v-2.749c0-1.105,0.295-2.071,0.885-2.898
		s1.374-1.474,2.351-1.94c1.877-0.903,3.858-1.634,5.945-2.192c2.086-0.558,4.547-0.837,7.381-0.837
		c1.104,0,2.131,0.042,3.081,0.126s1.836,0.21,2.661,0.378l-2.931,2.766c-0.405-0.07-0.843-0.111-1.314-0.125
		c-0.472-0.014-0.971-0.02-1.497-0.02c-2.613,0-4.903,0.275-6.869,0.825s-3.612,1.173-4.937,1.866
		c-0.501,0.254-0.867,0.551-1.098,0.891c-0.231,0.339-0.346,0.727-0.346,1.161V37.1H16.69l3.313,3.125H1.996z M28.604,40.994
		c-0.264,0-0.512-0.041-0.74-0.121c-0.229-0.08-0.449-0.219-0.658-0.416l-4.289-4.047c-0.307-0.288-0.463-0.65-0.47-1.088
		c-0.007-0.437,0.149-0.806,0.47-1.107c0.319-0.302,0.707-0.453,1.163-0.453s0.844,0.151,1.163,0.453l3.364,3.173l9.988-9.423
		c0.306-0.289,0.69-0.436,1.153-0.443c0.463-0.006,0.854,0.142,1.174,0.443s0.48,0.668,0.48,1.098s-0.16,0.796-0.48,1.098
		L30.004,40.461c-0.207,0.195-0.426,0.332-0.657,0.412S28.867,40.994,28.604,40.994z M16.563,24.359
		c-2.125,0-3.945-0.714-5.458-2.142c-1.514-1.428-2.271-3.145-2.271-5.15c0-2.005,0.757-3.722,2.271-5.149
		c1.513-1.428,3.333-2.142,5.458-2.142s3.945,0.714,5.459,2.142c1.514,1.428,2.27,3.144,2.27,5.149c0,2.005-0.756,3.722-2.27,5.15
		C20.507,23.645,18.688,24.359,16.563,24.359z M16.563,21.234c1.214,0,2.254-0.408,3.119-1.224c0.865-0.816,1.297-1.797,1.297-2.943
		s-0.432-2.127-1.297-2.943c-0.865-0.816-1.905-1.224-3.119-1.224c-1.215,0-2.254,0.408-3.119,1.224
		c-0.865,0.816-1.297,1.797-1.297,2.943s0.432,2.127,1.297,2.943C14.308,20.826,15.348,21.234,16.563,21.234z"/>
</g>
</svg>
