<svg width="23" height="23" viewBox="0 0 23 23" fill="none" xmlns="http://www.w3.org/2000/svg">
<path d="M4.19268 21V17.9942L11.2158 11.4913C11.8131 10.9133 12.3141 10.3931 12.7187 9.93064C13.1297 9.46821 13.4412 9.01542 13.6532 8.57226C13.8651 8.12267 13.9711 7.63777 13.9711 7.11753C13.9711 6.5395 13.8394 6.04175 13.5761 5.62428C13.3128 5.20039 12.9531 4.87604 12.4971 4.65125C12.0411 4.42004 11.5241 4.30443 10.9461 4.30443C10.3423 4.30443 9.81567 4.42646 9.36609 4.67052C8.91651 4.91458 8.56969 5.26461 8.32563 5.72062C8.08157 6.17662 7.95954 6.71933 7.95954 7.34875H4C4 6.0578 4.29223 4.93706 4.87669 3.98651C5.46114 3.03597 6.28003 2.30058 7.33333 1.78035C8.38664 1.26012 9.60051 1 10.975 1C12.3879 1 13.6179 1.25048 14.6647 1.75145C15.718 2.24599 16.5369 2.93321 17.1214 3.8131C17.7058 4.693 17.9981 5.70135 17.9981 6.83815C17.9981 7.58317 17.8504 8.31856 17.5549 9.04432C17.2659 9.77007 16.7489 10.5761 16.0039 11.4624C15.2588 12.3423 14.2087 13.3988 12.8536 14.632L9.97302 17.4547V17.5896H18.2582V21H4.19268Z" fill="white"/>
</svg>
