<svg width="23" height="23" viewBox="0 0 23 23" fill="none" xmlns="http://www.w3.org/2000/svg">
<path d="M11.3859 21C9.96641 21 8.70215 20.756 7.59316 20.2681C6.49049 19.7738 5.61914 19.0957 4.97909 18.2338C4.34537 17.3657 4.01901 16.3644 4 15.23H8.14449C8.16984 15.7053 8.32509 16.1236 8.61027 16.4848C8.90177 16.8397 9.28834 17.1153 9.76996 17.3118C10.2516 17.5082 10.7934 17.6065 11.3954 17.6065C12.0228 17.6065 12.5773 17.4956 13.0589 17.2738C13.5406 17.052 13.9176 16.7446 14.1901 16.3517C14.4626 15.9588 14.5989 15.5057 14.5989 14.9924C14.5989 14.4727 14.4531 14.0133 14.1616 13.6141C13.8764 13.2085 13.4645 12.8916 12.9259 12.6635C12.3935 12.4354 11.7598 12.3213 11.0247 12.3213H9.20913V9.29848H11.0247C11.6458 9.29848 12.1939 9.19075 12.6692 8.97529C13.1508 8.75982 13.5247 8.46198 13.7909 8.08175C14.057 7.69518 14.1901 7.24525 14.1901 6.73194C14.1901 6.24398 14.0729 5.81622 13.8384 5.44867C13.6103 5.07478 13.2871 4.78327 12.8688 4.57415C12.4569 4.36502 11.9753 4.26046 11.424 4.26046C10.8663 4.26046 10.3561 4.36185 9.89354 4.56464C9.43092 4.76109 9.0602 5.04309 8.78137 5.41065C8.50253 5.7782 8.35361 6.20913 8.3346 6.70342H4.38973C4.40875 5.58175 4.72877 4.59316 5.34981 3.73764C5.97085 2.88213 6.80735 2.21356 7.85932 1.73194C8.91762 1.24398 10.1122 1 11.443 1C12.7864 1 13.962 1.24398 14.9696 1.73194C15.9772 2.2199 16.7598 2.87896 17.3175 3.70912C17.8815 4.53295 18.1603 5.45818 18.154 6.48479C18.1603 7.57478 17.8213 8.48416 17.1369 9.21293C16.4588 9.9417 15.5748 10.4043 14.4848 10.6008V10.7529C15.917 10.9366 17.007 11.4341 17.7548 12.2452C18.5089 13.0501 18.8828 14.0577 18.8764 15.2681C18.8828 16.3771 18.5627 17.3625 17.9164 18.2243C17.2763 19.0862 16.3923 19.7643 15.2643 20.2586C14.1362 20.7529 12.8435 21 11.3859 21Z" fill="white"/>
</svg>
