<svg width="946" height="390" viewBox="0 0 946 390" fill="none" xmlns="http://www.w3.org/2000/svg">
<path d="M75.1661 228.967H0V32.7096H74.403C94.4981 32.7096 111.859 36.6386 126.485 44.4966C141.175 52.2906 152.494 63.5346 160.443 78.2283C168.456 92.8582 172.462 110.395 172.462 130.838C172.462 151.282 168.488 168.851 160.539 183.544C152.59 198.174 141.334 209.418 126.771 217.276C112.209 225.07 95.0069 228.967 75.1661 228.967ZM53.036 183.736H73.2583C82.9243 183.736 91.1596 182.171 97.9639 179.04C104.832 175.91 110.046 170.512 113.608 162.845C117.232 155.179 119.045 144.51 119.045 130.838C119.045 117.167 117.201 106.498 113.512 98.8315C109.887 91.1652 104.546 85.7669 97.487 82.6365C90.4918 79.506 81.9069 77.9408 71.7321 77.9408H53.036V183.736Z" fill="#47B1B2"/>
<path d="M195.059 136.971V228.967H136.554V10.9032H192.939V96.5104H194.635C198.309 86.0756 204.421 77.9479 212.971 72.1272C221.52 66.2355 231.801 63.2897 243.813 63.2897C255.33 63.2897 265.328 65.9161 273.807 71.1689C282.357 76.4218 288.963 83.6622 293.627 92.8902C298.361 102.118 300.693 112.695 300.622 124.62V228.967H242.117V136.971C242.188 128.879 240.174 122.526 236.076 117.912C232.048 113.298 226.29 110.991 218.8 110.991C214.066 110.991 209.897 112.056 206.293 114.185C202.76 116.244 200.005 119.225 198.026 123.129C196.119 126.963 195.129 131.577 195.059 136.971Z" fill="#6C9B3F"/>
<path d="M323.685 193.191V147.193H352.937V228.967H325.169V213.422H324.321C322.554 218.639 319.463 222.721 315.047 225.666C310.631 228.577 305.384 230.032 299.308 230.032C293.62 230.032 288.638 228.719 284.364 226.092C280.124 223.466 276.821 219.846 274.454 215.232C272.122 210.618 270.938 205.329 270.903 199.367V147.193H300.156V193.191C300.191 197.237 301.215 200.414 303.229 202.721C305.278 205.028 308.14 206.181 311.814 206.181C314.252 206.181 316.354 205.667 318.12 204.637C319.922 203.573 321.3 202.082 322.254 200.165C323.243 198.213 323.72 195.888 323.685 193.191Z" fill="#A7C63D"/>
<path d="M365.603 194.469V228.967H343.663V167.637H364.49V179.296H365.126C366.451 175.409 368.782 172.362 372.121 170.152C375.486 167.943 379.408 166.838 383.885 166.838C388.204 166.838 391.954 167.836 395.133 169.833C398.339 171.803 400.817 174.518 402.566 177.978C404.341 181.439 405.215 185.392 405.189 189.837V228.967H383.25V194.469C383.276 191.434 382.508 189.052 380.944 187.322C379.407 185.591 377.261 184.726 374.506 184.726C372.704 184.726 371.127 185.125 369.776 185.924C368.451 186.696 367.431 187.814 366.716 189.278C366 190.715 365.629 192.446 365.603 194.469Z" fill="#F0D601"/>
<path d="M609.108 0V228.967H547.678V0H609.108Z" fill="#57B0BE"/>
<path d="M456.635 231.097C445.047 231.097 434.378 228.044 424.627 221.94C414.947 215.835 407.174 206.572 401.31 194.149C395.516 181.727 392.619 166.075 392.619 147.193C392.619 127.46 395.657 111.417 401.734 99.0658C407.881 86.7145 415.795 77.664 425.475 71.9143C435.226 66.1645 445.471 63.2897 456.211 63.2897C464.266 63.2897 471.332 64.7094 477.409 67.5487C483.485 70.3171 488.573 74.0438 492.671 78.7288C496.769 83.3427 499.878 88.4181 501.998 93.9549H502.845V10.9032H561.35V228.967H503.269V202.135H501.998C499.736 207.672 496.486 212.641 492.247 217.042C488.078 221.372 482.991 224.815 476.985 227.37C471.049 229.855 464.266 231.097 456.635 231.097ZM478.256 185.951C483.626 185.951 488.219 184.389 492.035 181.266C495.921 178.071 498.889 173.599 500.938 167.85C503.057 162.029 504.117 155.143 504.117 147.193C504.117 139.101 503.057 132.18 500.938 126.43C498.889 120.61 495.921 116.173 492.035 113.121C488.219 109.997 483.626 108.436 478.256 108.436C472.886 108.436 468.294 109.997 464.478 113.121C460.733 116.173 457.836 120.61 455.787 126.43C453.809 132.18 452.819 139.101 452.819 147.193C452.819 155.285 453.809 162.242 455.787 168.063C457.836 173.812 460.733 178.249 464.478 181.372C468.294 184.425 472.886 185.951 478.256 185.951Z" fill="#EA6522"/>
<path d="M692.52 239.445C674.855 239.445 659.735 235.931 647.157 228.903C634.58 221.805 624.936 211.938 618.223 199.303C611.511 186.597 608.154 171.867 608.154 155.115C608.154 138.363 611.511 123.669 618.223 111.034C624.936 98.3276 634.58 88.4608 647.157 81.4333C659.735 74.3349 674.855 70.7857 692.52 70.7857C710.184 70.7857 725.305 74.3349 737.883 81.4333C750.46 88.4608 760.104 98.3276 766.817 111.034C773.53 123.669 776.886 138.363 776.886 155.115C776.886 171.867 773.53 186.597 766.817 199.303C760.104 211.938 750.46 221.805 737.883 228.903C725.305 235.931 710.184 239.445 692.52 239.445ZM692.944 196.002C697.89 196.002 702.165 194.334 705.768 190.998C709.372 187.661 712.163 182.905 714.141 176.73C716.12 170.554 717.109 163.207 717.109 154.689C717.109 146.1 716.12 138.753 714.141 132.649C712.163 126.473 709.372 121.717 705.768 118.381C702.165 115.044 697.89 113.376 692.944 113.376C687.715 113.376 683.228 115.044 679.484 118.381C675.739 121.717 672.877 126.473 670.899 132.649C668.92 138.753 667.931 146.1 667.931 154.689C667.931 163.207 668.92 170.554 670.899 176.73C672.877 182.905 675.739 187.661 679.484 190.998C683.228 194.334 687.715 196.002 692.944 196.002Z" fill="#D12D38"/>
<path d="M775.214 135.662C816.752 139.739 849.211 174.923 849.211 217.723C849.211 263.262 812.465 300.179 767.135 300.179C729.259 300.179 697.376 274.405 687.914 239.363C683.844 239.217 679.916 238.874 676.13 238.335C685.478 280.168 722.673 311.423 767.135 311.423C818.646 311.423 860.404 269.472 860.404 217.723C860.404 167.733 821.435 126.886 772.351 124.168C773.538 127.856 774.493 131.688 775.214 135.662Z" fill="black"/>
<path d="M678.117 189.676C684.602 168.881 698.107 151.206 715.844 139.452C716.569 143.365 716.983 147.671 717.084 152.368C703.25 163.077 692.911 178.12 688.081 195.474C684.877 194.742 682.011 193.25 679.484 190.998C679.014 190.579 678.558 190.139 678.117 189.676Z" fill="black"/>
<path d="M687.914 239.363C686.052 232.467 685.059 225.211 685.059 217.723C685.059 210.014 686.112 202.551 688.081 195.474C684.877 194.742 682.011 193.25 679.484 190.998C679.014 190.579 678.558 190.139 678.117 189.676C675.355 198.531 673.866 207.953 673.866 217.723C673.866 224.805 674.648 231.703 676.13 238.335C679.916 238.874 683.844 239.217 687.914 239.363Z" fill="black"/>
<path d="M794.901 243.2L794.788 243.442C781.086 272.616 791.068 305.793 817.039 317.398C834.062 325.005 860.619 326.339 895.971 321.362C922.18 317.672 943.736 311.687 943.951 311.627C944.549 311.46 945.069 311.007 945.351 310.407C945.359 310.389 945.367 310.372 945.374 310.355C945.65 309.729 945.636 309.031 945.338 308.482C945.226 308.278 934.01 287.76 918.867 265.697C898.429 235.917 880.928 217.627 866.851 211.337C840.879 199.733 808.603 214.026 794.901 243.2ZM854.622 240.339C866.674 245.725 871.308 261.116 864.951 274.649C858.596 288.182 843.62 294.811 831.569 289.426C819.517 284.04 814.884 268.649 821.24 255.116C827.596 241.583 842.571 234.954 854.622 240.339Z" fill="#009C34"/>
<path d="M793.191 229.923L793.015 230.122C771.667 254.219 771.913 288.877 793.562 307.381C807.753 319.509 832.853 328.326 868.164 333.585C894.343 337.484 916.705 337.861 916.928 337.864C917.549 337.873 918.174 337.586 918.613 337.09C918.626 337.076 918.639 337.062 918.651 337.047C919.091 336.525 919.274 335.852 919.142 335.241C919.092 335.013 914.103 312.148 905.782 286.685C894.55 252.318 882.905 229.806 871.17 219.777C849.52 201.275 814.539 205.826 793.191 229.923ZM851.284 244.127C861.331 252.714 861.447 268.793 851.545 279.971C841.642 291.149 825.412 293.258 815.366 284.671C805.32 276.085 805.203 260.006 815.106 248.828C825.009 237.65 841.238 235.541 851.284 244.127Z" fill="#48BEC8"/>
<path d="M793.88 235.524L793.66 235.674C767.103 253.809 758.923 287.479 775.422 310.731C786.238 325.972 808.437 340.676 841.403 354.433C865.843 364.633 887.437 370.481 887.653 370.538C888.253 370.7 888.929 370.575 889.475 370.202C889.491 370.191 889.507 370.18 889.522 370.169C890.076 369.77 890.417 369.163 890.437 368.538C890.444 368.305 891.16 344.907 889.276 318.175C886.733 282.093 880.909 257.407 871.965 244.804C855.464 221.553 820.435 217.39 793.88 235.524ZM846.765 263.542C854.422 274.332 850.629 289.954 838.31 298.366C825.992 306.778 809.741 304.844 802.084 294.054C794.427 283.264 798.22 267.643 810.539 259.231C822.858 250.818 839.109 252.753 846.765 263.542Z" fill="#E53535"/>
<path d="M811.249 227.19L810.988 227.237C779.38 232.924 758.25 260.322 763.884 288.31C767.578 306.657 781.884 329.173 806.407 355.234C824.587 374.555 841.934 388.736 842.107 388.877C842.59 389.27 843.258 389.433 843.909 389.316C843.927 389.313 843.946 389.309 843.964 389.305C844.632 389.168 845.19 388.752 845.462 388.19C845.563 387.981 855.709 366.908 864.833 341.725C877.149 307.734 881.845 282.807 878.791 267.636C873.155 239.647 842.857 221.504 811.249 227.19ZM848.177 274.43C850.791 287.418 840.99 300.13 826.328 302.768C811.667 305.406 797.611 296.986 794.997 283.998C792.382 271.01 802.183 258.298 816.845 255.66C831.507 253.022 845.562 261.442 848.177 274.43Z" fill="#F1CB58"/>
<path d="M848.283 205.277C842.706 168.271 812.646 139.336 775.214 135.662C774.493 131.688 773.538 127.856 772.351 124.168C817.667 126.677 854.36 161.686 859.728 206.384C855.978 205.496 852.025 205.055 848.283 205.277Z" fill="black"/>
<path d="M835.334 263.616C820.603 285.666 795.556 300.179 767.135 300.179C729.259 300.179 697.376 274.405 687.914 239.363C683.844 239.217 679.916 238.874 676.13 238.335C685.478 280.168 722.673 311.423 767.135 311.423C799.56 311.423 828.121 294.8 844.834 269.574C842.812 267.707 839.223 265.012 835.334 263.616Z" fill="black"/>
<path d="M715.844 139.452C698.107 151.206 684.602 168.881 678.117 189.676C678.558 190.139 679.014 190.579 679.484 190.998C682.011 193.25 684.877 194.742 688.081 195.474C692.911 178.12 703.25 163.077 717.084 152.368C716.983 147.671 716.569 143.365 715.844 139.452Z" fill="black"/>
<path d="M766.152 74.207H761.895L761.855 71.707H765.82C766.367 71.694 766.875 71.5964 767.344 71.4141C767.826 71.2318 768.21 70.9714 768.496 70.6328C768.796 70.2812 768.945 69.8516 768.945 69.3438C768.945 68.6927 768.835 68.1784 768.613 67.8008C768.392 67.4232 768.021 67.1497 767.5 66.9805C766.992 66.8112 766.296 66.7266 765.41 66.7266H762.754V80.8086H760V64.2461H765.41C766.699 64.2461 767.812 64.4284 768.75 64.793C769.688 65.1576 770.41 65.7109 770.918 66.4531C771.426 67.1823 771.68 68.1068 771.68 69.2266C771.68 69.9297 771.517 70.5612 771.191 71.1211C770.866 71.681 770.391 72.1628 769.766 72.5664C769.141 72.9701 768.379 73.2956 767.48 73.543C767.441 73.543 767.396 73.5885 767.344 73.6797C767.305 73.7578 767.266 73.7969 767.227 73.7969C767.005 73.9271 766.862 74.0247 766.797 74.0898C766.745 74.1419 766.686 74.1745 766.621 74.1875C766.569 74.2005 766.413 74.207 766.152 74.207ZM765.957 74.207L766.348 72.4492C768.366 72.4492 769.74 72.8789 770.469 73.7383C771.211 74.5846 771.582 75.6589 771.582 76.9609V78.0156C771.582 78.4974 771.608 78.9596 771.66 79.4023C771.712 79.832 771.797 80.1966 771.914 80.4961V80.8086H769.082C768.952 80.4701 768.874 79.9883 768.848 79.3633C768.835 78.7383 768.828 78.2826 768.828 77.9961V76.9805C768.828 76.0299 768.607 75.3333 768.164 74.8906C767.734 74.4349 766.999 74.207 765.957 74.207ZM754.023 72.7617C754.023 74.4935 754.323 76.1081 754.922 77.6055C755.521 79.1029 756.354 80.4115 757.422 81.5312C758.49 82.651 759.727 83.5234 761.133 84.1484C762.539 84.7734 764.043 85.0859 765.645 85.0859C767.246 85.0859 768.743 84.7734 770.137 84.1484C771.543 83.5234 772.773 82.651 773.828 81.5312C774.896 80.4115 775.729 79.1029 776.328 77.6055C776.927 76.1081 777.227 74.4935 777.227 72.7617C777.227 71.0169 776.927 69.4023 776.328 67.918C775.729 66.4336 774.896 65.138 773.828 64.0312C772.773 62.9115 771.543 62.0456 770.137 61.4336C768.743 60.8086 767.246 60.4961 765.645 60.4961C764.043 60.4961 762.539 60.8086 761.133 61.4336C759.727 62.0456 758.49 62.9115 757.422 64.0312C756.354 65.138 755.521 66.4336 754.922 67.918C754.323 69.4023 754.023 71.0169 754.023 72.7617ZM751.777 72.7617C751.777 70.6914 752.135 68.7708 752.852 67C753.568 65.2292 754.564 63.6862 755.84 62.3711C757.116 61.043 758.587 60.0143 760.254 59.2852C761.934 58.543 763.73 58.1719 765.645 58.1719C767.559 58.1719 769.349 58.543 771.016 59.2852C772.695 60.0143 774.167 61.043 775.43 62.3711C776.706 63.6862 777.702 65.2292 778.418 67C779.134 68.7708 779.492 70.6914 779.492 72.7617C779.492 74.832 779.134 76.7526 778.418 78.5234C777.702 80.2943 776.706 81.8503 775.43 83.1914C774.167 84.5195 772.695 85.5547 771.016 86.2969C769.349 87.0391 767.559 87.4102 765.645 87.4102C763.73 87.4102 761.934 87.0391 760.254 86.2969C758.587 85.5547 757.116 84.5195 755.84 83.1914C754.564 81.8503 753.568 80.2943 752.852 78.5234C752.135 76.7526 751.777 74.832 751.777 72.7617Z" fill="black"/>
</svg>
