<svg width="90" height="90" viewBox="0 0 90 90" fill="none" xmlns="http://www.w3.org/2000/svg">
<rect width="90" height="90" fill="white"/>
<path d="M33.6094 34.2464L33.5472 34.2973C26.0269 40.4474 24.4577 50.7664 30.049 57.3C33.7141 61.5828 40.7953 65.3998 51.0961 68.6452C58.7329 71.0512 65.3961 72.228 65.4625 72.2395C65.6477 72.2719 65.8482 72.2162 66.0029 72.0897C66.0073 72.0861 66.0118 72.0825 66.016 72.0787C66.1723 71.9444 66.2589 71.7529 66.2485 71.5649C66.2443 71.4949 65.8374 64.4571 64.558 56.4884C62.8312 45.7329 60.4189 38.4835 57.3882 34.942C51.7965 28.4085 41.1295 28.0965 33.6094 34.2464ZM50.2927 41.2369C52.8874 44.2689 52.1601 49.0563 48.6716 51.9092C45.1832 54.762 40.2344 54.6164 37.6398 51.5845C35.0452 48.5526 35.7724 43.7651 39.2608 40.9123C42.7493 38.0594 47.6982 38.2051 50.2927 41.2369Z" fill="#009C34"/>
<path d="M34.8617 30.4139L34.7877 30.4451C25.8363 34.2202 21.4159 43.6755 24.9337 51.5226C27.2395 56.6663 32.954 62.3283 41.9183 68.3515C48.5643 72.8169 54.6236 75.8282 54.6841 75.858C54.8526 75.9414 55.0607 75.9446 55.2448 75.867C55.25 75.8648 55.2554 75.8625 55.2605 75.8601C55.4484 75.7754 55.5855 75.6162 55.6286 75.4329C55.6445 75.3646 57.2423 68.4985 58.2662 60.493C59.6483 49.6877 59.3822 42.0521 57.4754 37.7988C53.9573 29.9517 43.8129 26.6389 34.8617 30.4139ZM48.8906 41.8327C50.5231 45.4742 48.473 49.8612 44.3206 51.6123C40.1684 53.3634 35.4623 51.8256 33.8299 48.1843C32.1975 44.543 34.2476 40.1559 38.3998 38.4048C42.5522 36.6536 47.2583 38.1914 48.8906 41.8327Z" fill="#48BEC8"/>
<path d="M34.3244 32.0264L34.2451 32.0386C24.643 33.515 18.0487 41.6056 19.545 50.074C20.5259 55.6249 24.6857 62.5103 31.909 70.5392C37.2643 76.4915 42.4055 80.8905 42.4569 80.9341C42.5999 81.0561 42.8009 81.11 42.9984 81.0796C43.004 81.0788 43.0098 81.0779 43.0153 81.0768C43.2182 81.0405 43.3901 80.9196 43.4766 80.7524C43.5086 80.69 46.7338 74.4215 49.6805 66.9079C53.6578 56.7666 55.2632 49.297 54.4521 44.7069C52.9554 36.2385 43.9263 30.5501 34.3244 32.0264ZM45.1424 46.5238C45.8368 50.4535 42.7781 54.2075 38.3239 54.8924C33.8698 55.5772 29.6813 52.9373 28.987 49.0077C28.2926 45.0781 31.3514 41.324 35.8054 40.6392C40.2596 39.9543 44.4481 42.5942 45.1424 46.5238Z" fill="#E53535"/>
<path d="M40.1479 32.0199L40.0704 31.9987C30.7003 29.4335 21.3811 34.1341 19.2962 42.477C17.9295 47.9458 18.922 55.9288 22.2459 66.2045C24.7103 73.8226 27.6123 79.935 27.6415 79.9958C27.7223 80.1655 27.8839 80.2967 28.0766 80.3494C28.0821 80.3509 28.0877 80.3525 28.0932 80.3537C28.2933 80.4033 28.4995 80.3629 28.6467 80.2455C28.7014 80.2015 34.2013 75.7917 39.9544 70.1314C47.7196 62.4916 52.2299 56.3248 53.36 51.8027C55.4446 43.4595 49.5178 34.5851 40.1479 32.0199ZM44.1181 49.6676C43.1506 53.5391 38.8274 55.7206 34.4808 54.5306C30.1344 53.3407 27.3854 49.223 28.3529 45.3515C29.3204 41.4801 33.6436 39.2986 37.99 40.4885C42.3366 41.6784 45.0856 45.7961 44.1181 49.6676Z" fill="#F1CB58"/>
<path fill-rule="evenodd" clip-rule="evenodd" d="M43.4467 44.7936C37.6954 44.9565 31.9481 42.4616 28.1614 37.5599C21.8714 29.4178 23.3728 17.7182 31.5149 11.4282C39.657 5.13821 51.3565 6.63962 57.6465 14.7817C62.6286 21.2308 62.7226 29.9116 58.5004 36.3685C58.984 37.1109 59.4441 37.983 59.8556 38.8605C65.4216 31.4337 65.6068 20.9306 59.6569 13.2287C52.5091 3.97627 39.2142 2.27013 29.9618 9.41787C20.7094 16.5656 19.0033 29.8605 26.151 39.1129C30.6145 44.8906 37.4751 47.7257 44.2514 47.2997C44.1238 46.3177 43.794 45.4494 43.4467 44.7936ZM57.7797 41.236C57.7248 41.1152 57.6674 40.9949 57.6076 40.8756L57.8773 41.1392C57.8449 41.1716 57.8124 41.2038 57.7797 41.236Z" fill="black"/>
</svg>
