<svg width="60" height="60" viewBox="0 0 60 60" fill="none" xmlns="http://www.w3.org/2000/svg">
<circle cx="30" cy="30" r="28.5" stroke="white" stroke-width="3"/>
<mask id="mask0_1630_443" style="mask-type:alpha" maskUnits="userSpaceOnUse" x="7" y="7" width="45" height="45">
<rect x="7" y="7" width="45" height="45" fill="#D9D9D9"/>
</mask>
<g mask="url(#mask0_1630_443)">
<path d="M12.9997 23.1719C12.6877 23.1719 12.4144 23.0545 12.1796 22.8198C11.9456 22.5858 11.8286 22.3124 11.8286 21.9996C11.8286 21.6561 11.9456 21.3749 12.1796 21.1559C12.4144 20.9376 12.6877 20.8285 12.9997 20.8285H19.4685C19.7812 20.8285 20.0546 20.9376 20.2886 21.1559C20.5234 21.3749 20.6407 21.6561 20.6407 21.9996C20.6407 22.3439 20.5234 22.6251 20.2886 22.8434C20.0546 23.0624 19.7812 23.1719 19.4685 23.1719H12.9997ZM12.9997 32.5465C12.6877 32.5465 12.4144 32.4374 12.1796 32.2191C11.9456 32.0001 11.8286 31.7189 11.8286 31.3754C11.8286 31.0311 11.9456 30.7499 12.1796 30.5316C12.4144 30.3126 12.6877 30.2031 12.9997 30.2031H19.4685C19.7812 30.2031 20.0546 30.3126 20.2886 30.5316C20.5234 30.7499 20.6407 31.0311 20.6407 31.3754C20.6407 31.7189 20.5234 32.0001 20.2886 32.2191C20.0546 32.4374 19.7812 32.5465 19.4685 32.5465H12.9997ZM44.6876 41.1246L38.1716 34.6559C37.4531 35.2184 36.6641 35.6481 35.8046 35.9451C34.9451 36.2421 34.0624 36.3906 33.1564 36.3906C30.8126 36.3906 28.8206 35.5705 27.1804 33.9302C25.5394 32.2892 24.7189 30.2969 24.7189 27.9531C24.7189 25.6094 25.5394 23.617 27.1804 21.976C28.8206 20.3358 30.8126 19.5156 33.1564 19.5156C35.5001 19.5156 37.4921 20.3358 39.1324 21.976C40.7734 23.617 41.5939 25.6094 41.5939 27.9531C41.5939 28.8591 41.4454 29.7419 41.1484 30.6014C40.8514 31.4609 40.4216 32.2656 39.8591 33.0156L46.3279 39.4844C46.5469 39.7034 46.6642 39.9768 46.68 40.3045C46.6957 40.633 46.5784 40.9064 46.3279 41.1246C46.1096 41.3751 45.8362 41.5004 45.5077 41.5004C45.18 41.5004 44.9066 41.3751 44.6876 41.1246ZM33.1564 34.0472C34.8124 34.0472 36.2344 33.4533 37.4224 32.2653C38.6096 31.078 39.2032 29.6406 39.2032 27.9531C39.2032 26.2656 38.6171 24.8282 37.4449 23.641C36.2734 22.453 34.8439 21.859 33.1564 21.859C31.4689 21.859 30.0315 22.453 28.8442 23.641C27.6562 24.8282 27.0622 26.2656 27.0622 27.9531C27.0622 29.6406 27.6562 31.078 28.8442 32.2653C30.0315 33.4533 31.4689 34.0472 33.1564 34.0472ZM12.9997 41.9222C12.6877 41.9222 12.4144 41.8128 12.1796 41.5938C11.9456 41.3747 11.8286 41.0935 11.8286 40.75C11.8286 40.4065 11.9456 40.1253 12.1796 39.9062C12.4144 39.6872 12.6877 39.5778 12.9997 39.5778H28.8442C29.1562 39.5778 29.4296 39.6951 29.6644 39.9299C29.8984 40.1639 30.0154 40.4373 30.0154 40.75C30.0154 41.0935 29.8984 41.3747 29.6644 41.5938C29.4296 41.8128 29.1562 41.9222 28.8442 41.9222H12.9997Z" fill="white"/>
</g>
</svg>
