<svg width="60" height="60" viewBox="0 0 60 60" fill="none" xmlns="http://www.w3.org/2000/svg">
<circle cx="30" cy="30" r="28.5" stroke="white" stroke-width="3"/>
<line x1="11.4033" y1="15.8246" x2="45.8246" y2="42.5967" stroke="white" stroke-width="2" stroke-linecap="round"/>
<mask id="mask0_1630_441" style="mask-type:alpha" maskUnits="userSpaceOnUse" x="10" y="10" width="40" height="40">
<rect x="10" y="10" width="40" height="40" fill="#D9D9D9"/>
</mask>
<g mask="url(#mask0_1630_441)">
<path d="M33.5 44.167C33.3333 44.167 33.1873 44.146 33.062 44.104C32.9373 44.0627 32.8193 43.9863 32.708 43.875L22.792 33.542C22.6527 33.4027 22.5347 33.2013 22.438 32.938C22.3407 32.674 22.292 32.4307 22.292 32.208C22.292 31.736 22.4517 31.3403 22.771 31.021C23.0903 30.7017 23.5 30.542 24 30.542H27.5C29.1387 30.542 30.597 30.014 31.875 28.958C33.153 27.9027 33.8473 26.4307 33.958 24.542H21.458C21.1527 24.542 20.9027 24.4447 20.708 24.25C20.514 24.0553 20.417 23.8053 20.417 23.5C20.417 23.1947 20.514 22.9447 20.708 22.75C20.9027 22.5553 21.1527 22.458 21.458 22.458H33.792C33.4307 21.1247 32.6667 20.0347 31.5 19.188C30.3333 18.3407 29 17.917 27.5 17.917H21.458C21.1527 17.917 20.9027 17.8197 20.708 17.625C20.514 17.4303 20.417 17.1803 20.417 16.875C20.417 16.5697 20.514 16.3197 20.708 16.125C20.9027 15.9303 21.1527 15.833 21.458 15.833H38.542C38.8473 15.833 39.0973 15.9303 39.292 16.125C39.486 16.3197 39.583 16.5697 39.583 16.875C39.583 17.1803 39.486 17.4303 39.292 17.625C39.0973 17.8197 38.8473 17.917 38.542 17.917H33.125C33.8197 18.417 34.424 19.0837 34.938 19.917C35.4513 20.7503 35.7913 21.5973 35.958 22.458H38.542C38.8473 22.458 39.0973 22.5553 39.292 22.75C39.486 22.9447 39.583 23.1947 39.583 23.5C39.583 23.8053 39.486 24.0553 39.292 24.25C39.0973 24.4447 38.8473 24.542 38.542 24.542H36.083C35.9723 26.986 35.0837 28.9443 33.417 30.417C31.7503 31.889 29.778 32.625 27.5 32.625H24.833L34.25 42.417C34.5833 42.7503 34.6597 43.1253 34.479 43.542C34.2983 43.9587 33.972 44.167 33.5 44.167Z" fill="white"/>
</g>
</svg>
