<svg width="60" height="60" viewBox="0 0 60 60" fill="none" xmlns="http://www.w3.org/2000/svg">
<circle cx="30" cy="30" r="28.5" stroke="white" stroke-width="3"/>
<mask id="mask0_1630_442" style="mask-type:alpha" maskUnits="userSpaceOnUse" x="10" y="10" width="40" height="40">
<rect x="10" y="10" width="40" height="40" fill="#D9D9D9"/>
</mask>
<g mask="url(#mask0_1630_442)">
<path d="M22.9169 43.208C22.6389 43.4027 22.3679 43.4097 22.1039 43.229C21.8399 43.0483 21.7636 42.7913 21.8749 42.458L24.5419 33.667L17.6249 28.708C17.3469 28.514 17.2636 28.264 17.3749 27.958C17.4862 27.6527 17.7086 27.5 18.0419 27.5H26.6249L29.3749 18.333C29.4302 18.1943 29.5136 18.0833 29.6249 18C29.7362 17.9167 29.8612 17.875 29.9999 17.875C30.1386 17.875 30.2636 17.9167 30.3749 18C30.4862 18.0833 30.5696 18.1943 30.6249 18.333L33.3749 27.5H41.9999C42.3052 27.5 42.5136 27.6527 42.6249 27.958C42.7362 28.264 42.6529 28.514 42.3749 28.708L35.4579 33.667L38.1249 42.458C38.2362 42.7913 38.1599 43.0483 37.8959 43.229C37.6319 43.4097 37.3609 43.4027 37.0829 43.208L29.9999 37.792L22.9169 43.208ZM25.1669 38.792L29.9999 35.125L34.8329 38.792L32.9579 32.667L37.4169 29.625H31.9579L29.9999 23.458L28.0419 29.625H22.5829L27.0419 32.667L25.1669 38.792Z" fill="white"/>
</g>
</svg>
