<svg width="60" height="60" viewBox="0 0 60 60" fill="none" xmlns="http://www.w3.org/2000/svg">
<circle cx="30" cy="30" r="28.5" stroke="white" stroke-width="3"/>
<mask id="mask0_1630_444" style="mask-type:alpha" maskUnits="userSpaceOnUse" x="10" y="10" width="40" height="40">
<rect x="10" y="10" width="40" height="40" fill="#D9D9D9"/>
</mask>
<g mask="url(#mask0_1630_444)">
<path d="M30 46.625C29.8333 46.625 29.6737 46.5973 29.521 46.542C29.3683 46.486 29.2223 46.3887 29.083 46.25L25.333 42.5H18.458C17.736 42.5 17.118 42.243 16.604 41.729C16.09 41.215 15.833 40.597 15.833 39.875V16.75C15.833 16.028 16.09 15.417 16.604 14.917C17.118 14.417 17.736 14.167 18.458 14.167H41.542C42.264 14.167 42.882 14.417 43.396 14.917C43.91 15.417 44.167 16.028 44.167 16.75V39.875C44.167 40.597 43.91 41.215 43.396 41.729C42.882 42.243 42.264 42.5 41.542 42.5H34.667L30.917 46.25C30.7777 46.3887 30.6317 46.486 30.479 46.542C30.3263 46.5973 30.1667 46.625 30 46.625ZM17.917 38.958C19.5003 37.458 21.3127 36.2567 23.354 35.354C25.396 34.4513 27.6113 34 30 34C32.3887 34 34.604 34.4513 36.646 35.354C38.6873 36.2567 40.4997 37.458 42.083 38.958V16.75C42.083 16.6387 42.0277 16.5277 41.917 16.417C41.8057 16.3057 41.6807 16.25 41.542 16.25H18.458C18.3193 16.25 18.1943 16.3057 18.083 16.417C17.9723 16.5277 17.917 16.6387 17.917 16.75V38.958ZM30.042 30.417C31.542 30.417 32.8127 29.903 33.854 28.875C34.896 27.847 35.417 26.5693 35.417 25.042C35.417 23.542 34.896 22.271 33.854 21.229C32.8127 20.1877 31.542 19.667 30.042 19.667C28.542 19.667 27.271 20.1877 26.229 21.229C25.1877 22.271 24.667 23.542 24.667 25.042C24.667 26.5693 25.1877 27.847 26.229 28.875C27.271 29.903 28.542 30.417 30.042 30.417ZM30.042 28.333C29.1253 28.333 28.3473 28.0137 27.708 27.375C27.0693 26.7363 26.75 25.9587 26.75 25.042C26.75 24.1253 27.0693 23.3543 27.708 22.729C28.3473 22.1043 29.1253 21.792 30.042 21.792C30.9587 21.792 31.7363 22.1043 32.375 22.729C33.0137 23.3543 33.333 24.1253 33.333 25.042C33.333 25.9587 33.0137 26.7363 32.375 27.375C31.7363 28.0137 30.9587 28.333 30.042 28.333ZM30 44.083L33.708 40.375H40.167V40.042C38.6943 38.7087 37.097 37.7153 35.375 37.062C33.653 36.4093 31.8613 36.083 30 36.083C28.1387 36.083 26.347 36.4093 24.625 37.062C22.903 37.7153 21.3057 38.7087 19.833 40.042V40.375H26.292L30 44.083Z" fill="white"/>
</g>
</svg>
